<svg width="190" height="36" viewBox="0 0 190 36" fill="none" xmlns="http://www.w3.org/2000/svg">
<path d="M23.3281 5.796L25.0201 22.572C25.0921 23.148 25.1281 23.652 25.1281 24.084C25.1281 25.776 24.6241 26.388 22.0681 26.46V27C23.4361 26.964 25.4521 26.928 27.5401 26.928C29.6281 26.928 31.7881 26.964 33.3721 27V26.46C30.5281 26.352 30.3481 25.38 30.0241 22.572L28.4401 7.74C28.4041 7.38 28.3681 6.912 28.3681 6.552C28.3681 4.5 28.9081 3.492 31.8241 3.42V2.88C29.9161 2.916 28.4401 2.916 27.1801 2.916C25.4881 2.916 24.1201 2.88 23.1481 2.844L17.3881 19.296L11.4481 2.844C10.2601 2.88 8.74808 2.916 7.16408 2.916C5.58008 2.916 3.92408 2.916 2.52008 2.88V3.42C5.29208 3.456 5.94008 4.356 5.94008 6.48C5.94008 6.876 5.90408 7.308 5.86808 7.74L4.03208 22.716C3.67208 25.452 3.06008 26.424 0.504077 26.496V27C1.83608 26.964 3.13208 26.928 4.57208 26.928C6.04808 26.928 7.63208 26.964 9.50408 27V26.46C6.15608 26.352 5.32808 25.956 5.32808 23.796C5.32808 23.4 5.36408 22.86 5.43608 22.356L7.20008 5.688L15.3361 27.216H15.6241L23.3281 5.796ZM35.1994 23.472C35.1994 25.776 36.8194 27.216 38.9074 27.216C40.7794 27.216 42.0394 25.74 42.9034 24.768C43.4434 26.28 44.6674 27.252 46.5394 27.252C48.3034 27.252 49.7434 25.776 49.9594 24.192L49.8514 24.12C49.5634 24.372 49.1674 24.552 48.6274 24.552C47.6554 24.552 47.1874 23.976 47.1874 22.824C47.1874 20.628 47.3674 16.38 47.3674 13.68C47.3674 11.124 44.4514 10.224 42.5434 10.224C39.0874 10.224 35.4154 14.148 35.4154 16.38C35.4154 16.632 35.5234 16.704 35.6674 16.704C36.1714 16.704 38.0074 16.344 38.5114 16.128C38.3314 15.516 38.2234 14.688 38.2234 13.932C38.2234 12.996 38.7634 12.528 39.8434 12.528C42.0394 12.528 42.9754 13.896 42.9754 14.976V18.288L38.7994 20.088C36.5674 21.024 35.1994 21.672 35.1994 23.472ZM42.9394 18.864L42.9034 24.408C42.5074 24.588 42.1474 24.696 41.6434 24.696C40.3834 24.696 39.5554 23.868 39.5554 22.32C39.5554 21.204 40.1674 20.592 40.9954 20.088L42.9394 18.864ZM59.6045 26.46L58.2365 26.352C57.3365 26.28 57.3005 26.064 57.3005 23.256V14.652C57.8765 14.076 58.4165 13.68 59.0285 13.68C60.1805 13.68 60.4685 14.94 61.8365 14.94C62.8445 14.94 63.9965 14.112 63.9965 12.672C63.9965 11.232 63.1325 10.26 61.7285 10.26C60.0365 10.26 58.7045 11.988 57.3005 14.184V13.824C57.3005 12.636 57.3725 10.944 57.4445 10.188L57.2645 10.116C55.7525 10.908 53.3405 11.88 51.6125 12.42V12.6L52.4765 13.896C52.8725 14.4 52.9085 14.832 52.9085 15.3V23.292C52.9085 26.1 52.9085 26.316 51.8645 26.46L51.5045 26.496V27C52.4045 26.964 53.9525 26.928 55.5005 26.928C57.0485 26.928 58.5965 26.964 59.6045 27V26.46ZM83.4098 26.532C81.9338 26.244 81.6098 25.74 80.5658 24.12L75.4538 16.272L79.9178 12.276C80.5298 11.7 81.3218 11.232 82.7618 11.016V10.584C81.8618 10.656 80.7818 10.656 79.7378 10.656C78.6578 10.656 77.6138 10.656 76.7498 10.584V11.052C78.1538 11.232 78.4418 11.34 78.4418 11.736C78.4418 11.988 78.1538 12.384 77.7578 12.744L72.8978 17.388C72.4298 17.82 71.9258 18.036 71.3138 18.108V7.344C71.3138 3.312 71.4218 1.116 71.4938 0.36L71.3138 0.287998C69.6938 0.935999 67.1378 1.728 65.3378 2.16V2.34L66.4898 3.636C66.9218 4.104 66.9218 4.572 66.9218 5.04V23.292C66.9218 26.1 66.9218 26.316 65.8778 26.46L65.5178 26.496V27C66.3098 26.964 67.7138 26.928 69.1178 26.928C70.5218 26.928 71.9258 26.964 72.7178 27V26.496L72.2138 26.424C71.3138 26.316 71.3138 26.1 71.3138 23.292V18.504C71.8898 18.54 72.1418 18.72 72.4298 19.188L75.9938 24.948C76.3178 25.488 76.5338 25.884 76.5338 26.1C76.5338 26.388 76.3538 26.424 75.3098 26.496V27C76.6058 26.964 78.0458 26.928 79.4858 26.928C80.8898 26.928 82.2938 26.964 83.4098 27V26.532ZM98.2646 22.644L98.0846 22.536C96.9686 23.796 95.7446 24.336 94.2326 24.336C90.5966 24.336 88.0766 21.636 88.0766 17.1C88.0766 16.776 88.0766 16.452 88.1126 16.164H96.3566C97.4366 16.164 97.8326 15.552 97.8326 14.76C97.8326 11.88 95.3126 10.224 92.2166 10.224C87.9326 10.224 83.7206 13.968 83.7206 19.44C83.7206 24.228 87.1406 27.36 91.4606 27.36C94.3766 27.36 97.2206 25.416 98.2646 22.644ZM91.7486 11.232C93.2606 11.232 93.9806 12.42 93.9806 14.4C93.9806 14.904 93.7646 15.3 93.0446 15.336L88.2206 15.516C88.6526 13.068 90.0206 11.232 91.7486 11.232ZM105.993 27.36C108.549 27.36 110.673 25.632 111.825 23.616L111.717 23.472C110.709 24.12 109.773 24.336 108.693 24.336C107.145 24.336 105.885 23.94 105.885 22.608V12.636L110.565 12.744C110.925 12.384 111.573 11.196 111.573 10.656L105.885 10.8C105.921 9.828 106.065 7.992 106.137 7.38L105.921 7.272C104.229 8.964 101.781 10.8 99.9454 11.988V12.132L101.529 13.68C101.493 15.444 101.493 19.728 101.493 23.724C101.493 25.92 103.365 27.36 105.993 27.36ZM121.869 35.316L120.213 35.244C119.169 35.172 119.133 34.956 119.133 32.148V26.748C120.177 27.18 121.185 27.36 122.337 27.36C126.801 27.36 131.265 23.76 131.265 17.82C131.265 13.248 128.493 10.224 124.713 10.224C122.553 10.224 120.285 11.88 119.133 12.924C119.133 12.24 119.205 10.908 119.277 10.224L119.097 10.152C117.585 10.944 115.173 11.88 113.409 12.42V12.6L114.309 13.896C114.669 14.4 114.705 14.832 114.705 15.3V32.184C114.705 34.992 114.705 35.208 113.697 35.352L113.337 35.388V35.892C114.237 35.856 115.533 35.82 117.153 35.82C118.737 35.82 120.645 35.856 121.869 35.892V35.316ZM119.133 21.6V13.248C119.745 12.996 120.537 12.852 121.329 12.852C124.353 12.852 126.585 15.516 126.585 19.62C126.585 23.868 124.857 26.388 122.409 26.388C120.321 26.388 119.133 24.624 119.133 21.6ZM140.671 26.496L140.167 26.424C139.267 26.316 139.267 26.1 139.267 23.292V7.344C139.267 3.312 139.375 1.116 139.447 0.36L139.267 0.287998C137.647 0.935999 135.091 1.728 133.291 2.16V2.34L134.443 3.636C134.875 4.104 134.875 4.572 134.875 5.04V23.292C134.875 26.1 134.875 26.316 133.831 26.46L133.471 26.496V27C134.263 26.964 135.667 26.928 137.071 26.928C138.475 26.928 139.879 26.964 140.671 27V26.496ZM142.814 23.472C142.814 25.776 144.434 27.216 146.522 27.216C148.394 27.216 149.654 25.74 150.518 24.768C151.058 26.28 152.282 27.252 154.154 27.252C155.918 27.252 157.358 25.776 157.574 24.192L157.466 24.12C157.178 24.372 156.782 24.552 156.242 24.552C155.27 24.552 154.802 23.976 154.802 22.824C154.802 20.628 154.982 16.38 154.982 13.68C154.982 11.124 152.066 10.224 150.158 10.224C146.702 10.224 143.03 14.148 143.03 16.38C143.03 16.632 143.138 16.704 143.282 16.704C143.786 16.704 145.622 16.344 146.126 16.128C145.946 15.516 145.838 14.688 145.838 13.932C145.838 12.996 146.378 12.528 147.458 12.528C149.654 12.528 150.59 13.896 150.59 14.976V18.288L146.414 20.088C144.182 21.024 142.814 21.672 142.814 23.472ZM150.554 18.864L150.518 24.408C150.122 24.588 149.762 24.696 149.258 24.696C147.998 24.696 147.17 23.868 147.17 22.32C147.17 21.204 147.782 20.592 148.61 20.088L150.554 18.864ZM158.906 19.44C158.906 24.228 162.326 27.36 166.646 27.36C169.49 27.36 172.262 25.416 173.306 22.644L173.126 22.536C172.046 23.832 170.75 24.372 169.274 24.372C165.674 24.372 163.262 21.708 163.262 17.136C163.262 13.788 165.026 11.304 167.33 11.304C169.454 11.304 168.698 14.904 171.11 14.904C172.01 14.904 172.874 14.184 172.874 13.212C172.874 11.268 170.354 10.224 168.014 10.224C163.334 10.224 158.906 14.04 158.906 19.44ZM189.541 22.644L189.361 22.536C188.245 23.796 187.021 24.336 185.509 24.336C181.873 24.336 179.353 21.636 179.353 17.1C179.353 16.776 179.353 16.452 179.389 16.164H187.633C188.713 16.164 189.109 15.552 189.109 14.76C189.109 11.88 186.589 10.224 183.493 10.224C179.209 10.224 174.997 13.968 174.997 19.44C174.997 24.228 178.417 27.36 182.737 27.36C185.653 27.36 188.497 25.416 189.541 22.644ZM183.025 11.232C184.537 11.232 185.257 12.42 185.257 14.4C185.257 14.904 185.041 15.3 184.321 15.336L179.497 15.516C179.929 13.068 181.297 11.232 183.025 11.232Z" fill="#07072C"/>
</svg>
