<svg width="134" height="17" viewBox="0 0 134 17" fill="none" xmlns="http://www.w3.org/2000/svg">
<path d="M6.78043 5.1408C7.57403 5.1408 8.29936 5.2816 8.95643 5.5632C9.62202 5.83627 10.1596 6.27573 10.5692 6.8816C10.9788 7.48747 11.1836 8.25973 11.1836 9.1984C11.1836 10.1371 10.9788 10.9093 10.5692 11.5152C10.1596 12.1211 9.62202 12.5648 8.95643 12.8464C8.29936 13.1195 7.57403 13.256 6.78043 13.256C5.96123 13.256 5.23163 13.1237 4.59163 12.8592C3.95163 12.5947 3.44389 12.1936 3.06843 11.656V13H0.598026V2.76H3.06843V6.7408C3.44389 6.2032 3.95163 5.80213 4.59163 5.5376C5.23163 5.27307 5.96123 5.1408 6.78043 5.1408ZM5.84603 11.1824C6.75909 11.1824 7.44603 11.016 7.90683 10.6832C8.36762 10.3419 8.59802 9.84693 8.59802 9.1984C8.59802 8.54987 8.36336 8.0592 7.89403 7.7264C7.43323 7.38507 6.75056 7.2144 5.84603 7.2144C4.94149 7.2144 4.25029 7.38507 3.77243 7.7264C3.30309 8.06773 3.06843 8.5584 3.06843 9.1984C3.06843 9.84693 3.30309 10.3419 3.77243 10.6832C4.25029 11.016 4.94149 11.1824 5.84603 11.1824ZM19.7385 5.3968H22.2857L18.3305 13.128C17.9636 13.8533 17.5924 14.4464 17.2169 14.9072C16.8415 15.368 16.3977 15.7179 15.8857 15.9568C15.3737 16.2043 14.7679 16.328 14.0681 16.328C13.1977 16.328 12.2847 16.2 11.3289 15.944V14.0112C12.3529 14.2331 13.138 14.344 13.6841 14.344C14.0596 14.344 14.3625 14.3099 14.5929 14.2416C14.8233 14.1819 15.0367 14.0539 15.2329 13.8576C15.4292 13.6699 15.6297 13.384 15.8345 13H14.6313L10.7657 5.3968H13.3257L16.5257 11.6816L19.7385 5.3968Z" fill="#07072C" fill-opacity="0.9"/>
<path fill-rule="evenodd" clip-rule="evenodd" d="M31.2408 5.78245C34.9554 9.22658 39.9288 11.3321 45.3939 11.3321C45.6346 11.3321 45.8743 11.328 46.113 11.3199C46.5722 10.3146 46.828 9.19699 46.828 8.01961C46.828 3.62724 43.2673 0.0665283 38.8749 0.0665283C35.2593 0.0665283 32.2072 2.47922 31.2408 5.78245Z" fill="black"/>
<circle r="7.11098" transform="matrix(-1 0 0 1 38.8743 8.01998)" stroke="#07072C" stroke-opacity="0.9" stroke-width="1.68421"/>
<path d="M57.5455 13.1343C55.634 13.1343 54.1663 12.7119 53.1423 11.8671C52.1183 11.0223 51.6063 9.8319 51.6063 8.2959C51.6063 6.76843 52.1183 5.58656 53.1423 4.7503C54.1663 3.9055 55.634 3.4831 57.5455 3.4831C58.8169 3.4831 59.8964 3.6751 60.7839 4.0591C61.6713 4.43456 62.3412 4.98496 62.7935 5.7103C63.2543 6.4271 63.4847 7.28896 63.4847 8.2959C63.4847 9.31136 63.2543 10.1818 62.7935 10.9071C62.3412 11.6239 61.6713 12.1743 60.7839 12.5583C59.8964 12.9423 58.8169 13.1343 57.5455 13.1343ZM57.5455 10.8815C59.6617 10.8815 60.7199 10.0196 60.7199 8.2959C60.7199 6.58923 59.6617 5.7359 57.5455 5.7359C55.4377 5.7359 54.3839 6.58923 54.3839 8.2959C54.3839 10.0196 55.4377 10.8815 57.5455 10.8815ZM70.4142 5.0191C71.2078 5.0191 71.9331 5.1599 72.5902 5.4415C73.2558 5.71456 73.7934 6.15403 74.203 6.7599C74.6126 7.36576 74.8174 8.13803 74.8174 9.0767C74.8174 10.0154 74.6126 10.7876 74.203 11.3935C73.7934 11.9994 73.2558 12.4431 72.5902 12.7247C71.9331 12.9978 71.2078 13.1343 70.4142 13.1343C69.595 13.1343 68.8654 13.002 68.2254 12.7375C67.5854 12.473 67.0776 12.0719 66.7022 11.5343V15.9503H64.2318V5.2751H66.7022V6.6191C67.0776 6.0815 67.5854 5.68043 68.2254 5.4159C68.8654 5.15136 69.595 5.0191 70.4142 5.0191ZM69.4798 11.0607C70.3928 11.0607 71.0798 10.8943 71.5406 10.5615C72.0014 10.2202 72.2318 9.72523 72.2318 9.0767C72.2318 8.4367 71.9928 7.94603 71.515 7.6047C71.0371 7.26336 70.3459 7.0927 69.4414 7.0927C68.5368 7.0927 67.8542 7.26336 67.3934 7.6047C66.9326 7.9375 66.7022 8.42816 66.7022 9.0767C66.7022 9.72523 66.9368 10.2202 67.4062 10.5615C67.884 10.8943 68.5752 11.0607 69.4798 11.0607ZM80.9169 11.2399C81.6763 11.2399 82.2609 11.1546 82.6705 10.9839C83.0801 10.8047 83.3659 10.553 83.5281 10.2287H85.9985C85.7425 11.1674 85.1878 11.8884 84.3345 12.3919C83.4811 12.8868 82.3163 13.1343 80.8401 13.1343C79.1419 13.1343 77.8065 12.7887 76.8337 12.0975C75.8609 11.4063 75.3745 10.3994 75.3745 9.0767C75.3745 8.19776 75.6006 7.45536 76.0529 6.8495C76.5137 6.2351 77.1451 5.77856 77.9473 5.4799C78.7494 5.1727 79.671 5.0191 80.7121 5.0191C82.3761 5.0191 83.6859 5.3903 84.6417 6.1327C85.5974 6.86656 86.0753 8.0015 86.0753 9.5375H77.9089C78.0027 10.1519 78.2971 10.5914 78.7921 10.8559C79.287 11.1119 79.9953 11.2399 80.9169 11.2399ZM80.7121 6.7471C79.9782 6.7471 79.3851 6.85803 78.9329 7.0799C78.4806 7.29323 78.1734 7.6431 78.0113 8.1295H83.4769C83.3147 7.6431 83.0033 7.29323 82.5425 7.0799C82.0902 6.85803 81.4801 6.7471 80.7121 6.7471ZM92.6505 5.0191C93.0174 5.0191 93.3459 5.04896 93.6361 5.1087C93.9347 5.1599 94.2462 5.24523 94.5705 5.3647V7.5279C94.1779 7.3999 93.8323 7.3103 93.5337 7.2591C93.235 7.2079 92.9193 7.1823 92.5865 7.1823C92.0318 7.1823 91.4899 7.29323 90.9609 7.5151C90.4318 7.73696 89.8814 8.15083 89.3097 8.7567V12.8783H86.8393V5.2751H89.3097V6.8239C89.7705 6.16683 90.2697 5.70176 90.8073 5.4287C91.3449 5.15563 91.9593 5.0191 92.6505 5.0191ZM100.555 5.0191C101.647 5.0191 102.543 5.15136 103.243 5.4159C103.943 5.6719 104.467 6.09003 104.817 6.6703C105.167 7.25056 105.346 8.02283 105.355 8.9871V12.8783H102.884V11.8927C102.193 12.2682 101.447 12.554 100.644 12.7503C99.8508 12.9466 99.0614 13.0447 98.2764 13.0447C97.1585 13.0447 96.2881 12.8484 95.6652 12.4559C95.0422 12.0548 94.7308 11.4234 94.7308 10.5615C94.7308 9.62283 95.1532 8.95296 95.998 8.5519C96.8428 8.1423 97.9094 7.9375 99.198 7.9375C100.367 7.9375 101.596 8.0911 102.884 8.3983C102.85 7.79243 102.577 7.37856 102.065 7.1567C101.553 6.93483 100.913 6.8239 100.145 6.8239C99.4966 6.8239 98.831 6.8751 98.1484 6.9775C97.4742 7.07136 96.702 7.22923 95.8316 7.4511L95.358 5.7103C97.1841 5.2495 98.9164 5.0191 100.555 5.0191ZM99.1084 11.2399C99.5777 11.2399 100.171 11.1759 100.888 11.0479C101.613 10.9114 102.279 10.762 102.884 10.5999V9.9471C101.707 9.6911 100.58 9.5631 99.5052 9.5631C98.7628 9.5631 98.2124 9.63136 97.854 9.7679C97.5041 9.90443 97.3292 10.1263 97.3292 10.4335C97.3292 10.7407 97.47 10.954 97.7516 11.0735C98.0332 11.1844 98.4854 11.2399 99.1084 11.2399ZM113.183 7.1695H109.804V9.5503C109.804 10.0964 109.902 10.4847 110.098 10.7151C110.303 10.9455 110.679 11.0607 111.225 11.0607C111.541 11.0607 111.835 11.0479 112.108 11.0223C112.381 10.9882 112.74 10.9284 113.183 10.8431V12.8527C112.228 13.0404 111.383 13.1343 110.649 13.1343C109.497 13.1343 108.656 12.9124 108.127 12.4687C107.598 12.0164 107.334 11.2783 107.334 10.2543V7.1695H105.554V5.2751H107.334V3.7519L109.804 3.0607V5.2751H113.183V7.1695ZM119.203 13.1343C117.48 13.1343 116.148 12.7844 115.21 12.0847C114.28 11.3764 113.814 10.3738 113.814 9.0767C113.814 7.77963 114.28 6.78123 115.21 6.0815C116.148 5.37323 117.48 5.0191 119.203 5.0191C120.936 5.0191 122.267 5.37323 123.197 6.0815C124.136 6.78123 124.605 7.77963 124.605 9.0767C124.605 10.3738 124.136 11.3764 123.197 12.0847C122.267 12.7844 120.936 13.1343 119.203 13.1343ZM119.203 11.1503C120.15 11.1503 120.854 10.9839 121.315 10.6511C121.785 10.3098 122.019 9.78496 122.019 9.0767C122.019 8.36843 121.785 7.8479 121.315 7.5151C120.846 7.17376 120.142 7.0031 119.203 7.0031C118.265 7.0031 117.561 7.17376 117.091 7.5151C116.63 7.8479 116.4 8.36843 116.4 9.0767C116.4 9.78496 116.63 10.3098 117.091 10.6511C117.561 10.9839 118.265 11.1503 119.203 11.1503ZM131.178 5.0191C131.545 5.0191 131.873 5.04896 132.164 5.1087C132.462 5.1599 132.774 5.24523 133.098 5.3647V7.5279C132.705 7.3999 132.36 7.3103 132.061 7.2591C131.762 7.2079 131.447 7.1823 131.114 7.1823C130.559 7.1823 130.017 7.29323 129.488 7.5151C128.959 7.73696 128.409 8.15083 127.837 8.7567V12.8783H125.367V5.2751H127.837V6.8239C128.298 6.16683 128.797 5.70176 129.335 5.4287C129.872 5.15563 130.487 5.0191 131.178 5.0191Z" fill="#07072C" fill-opacity="0.9"/>
</svg>
