<svg width="146" height="30" viewBox="0 0 146 30" fill="none" xmlns="http://www.w3.org/2000/svg">
<path fill-rule="evenodd" clip-rule="evenodd" d="M3.77423 12.107C8.96029 16.9152 15.9036 19.8547 23.5334 19.8547C23.8697 19.8547 24.2046 19.849 24.5381 19.8377C25.1788 18.4343 25.5359 16.8743 25.5359 15.2309C25.5359 9.09856 20.5647 4.12732 14.4323 4.12732C9.38464 4.12732 5.12364 7.49551 3.77423 12.107Z" fill="url(#paint0_radial_182_4691)"/>
<circle r="9.92788" transform="matrix(-1 0 0 1 14.4323 15.2308)" stroke="white" stroke-width="2.35139"/>
<path d="M40.5008 22.4103C37.8322 22.4103 35.783 21.8205 34.3534 20.6411C32.9237 19.4616 32.2089 17.7997 32.2089 15.6552C32.2089 13.5227 32.9237 11.8726 34.3534 10.7051C35.783 9.52562 37.8322 8.93589 40.5008 8.93589C42.276 8.93589 43.783 9.20395 45.0221 9.74006C46.2611 10.2643 47.1963 11.0327 47.8277 12.0454C48.4711 13.0461 48.7928 14.2494 48.7928 15.6552C48.7928 17.0729 48.4711 18.2881 47.8277 19.3008C47.1963 20.3015 46.2611 21.07 45.0221 21.6061C43.783 22.1422 42.276 22.4103 40.5008 22.4103ZM40.5008 19.2651C43.4554 19.2651 44.9327 18.0618 44.9327 15.6552C44.9327 13.2725 43.4554 12.0811 40.5008 12.0811C37.5581 12.0811 36.0868 13.2725 36.0868 15.6552C36.0868 18.0618 37.5581 19.2651 40.5008 19.2651ZM58.4673 11.0804C59.5752 11.0804 60.5879 11.2769 61.5053 11.6701C62.4345 12.0513 63.1851 12.6649 63.7569 13.5107C64.3288 14.3566 64.6147 15.4348 64.6147 16.7453C64.6147 18.0558 64.3288 19.134 63.7569 19.9799C63.1851 20.8257 62.4345 21.4453 61.5053 21.8384C60.5879 22.2196 59.5752 22.4103 58.4673 22.4103C57.3236 22.4103 56.3049 22.2256 55.4114 21.8563C54.5179 21.487 53.809 20.927 53.2848 20.1765V26.3418H49.8358V11.4378H53.2848V13.3142C53.809 12.5636 54.5179 12.0037 55.4114 11.6343C56.3049 11.265 57.3236 11.0804 58.4673 11.0804ZM57.1627 19.5152C58.4375 19.5152 59.3965 19.2829 60.0399 18.8183C60.6832 18.3417 61.0049 17.6507 61.0049 16.7453C61.0049 15.8518 60.6713 15.1667 60.0041 14.6902C59.337 14.2137 58.372 13.9754 57.1091 13.9754C55.8463 13.9754 54.8932 14.2137 54.2498 14.6902C53.6065 15.1548 53.2848 15.8399 53.2848 16.7453C53.2848 17.6507 53.6124 18.3417 54.2677 18.8183C54.9349 19.2829 55.8999 19.5152 57.1627 19.5152ZM73.1305 19.7654C74.1908 19.7654 75.0069 19.6463 75.5787 19.408C76.1506 19.1578 76.5497 18.8064 76.776 18.3537H80.2251C79.8676 19.6642 79.0933 20.6709 77.9019 21.3738C76.7105 22.0648 75.0843 22.4103 73.0232 22.4103C70.6524 22.4103 68.7879 21.9278 67.4298 20.9628C66.0716 19.9977 65.3925 18.5919 65.3925 16.7453C65.3925 15.5182 65.7082 14.4817 66.3397 13.6358C66.983 12.7781 67.8646 12.1407 68.9845 11.7237C70.1044 11.2948 71.3911 11.0804 72.8445 11.0804C75.1677 11.0804 76.9964 11.5986 78.3308 12.6351C79.6651 13.6597 80.3323 15.2442 80.3323 17.3886H68.9309C69.0619 18.2464 69.473 18.86 70.1639 19.2293C70.8549 19.5867 71.8438 19.7654 73.1305 19.7654ZM72.8445 13.4929C71.8199 13.4929 70.9919 13.6478 70.3605 13.9575C69.7291 14.2553 69.3002 14.7438 69.0738 15.4229H76.7046C76.4782 14.7438 76.0434 14.2553 75.4 13.9575C74.7686 13.6478 73.9168 13.4929 72.8445 13.4929ZM89.5121 11.0804C90.0244 11.0804 90.4831 11.1221 90.8882 11.2054C91.3052 11.2769 91.74 11.3961 92.1927 11.5629V14.583C91.6447 14.4043 91.1622 14.2792 90.7452 14.2077C90.3282 14.1362 89.8874 14.1005 89.4228 14.1005C88.6484 14.1005 87.8919 14.2553 87.1532 14.5651C86.4146 14.8749 85.6462 15.4527 84.8479 16.2985V22.0529H81.3989V11.4378H84.8479V13.6001C85.4913 12.6827 86.1882 12.0334 86.9388 11.6522C87.6894 11.271 88.5471 11.0804 89.5121 11.0804ZM100.548 11.0804C102.073 11.0804 103.324 11.265 104.3 11.6343C105.277 11.9917 106.01 12.5755 106.498 13.3857C106.987 14.1958 107.237 15.274 107.249 16.6202V22.0529H103.8V20.6768C102.835 21.201 101.793 21.6001 100.673 21.8742C99.5647 22.1482 98.4627 22.2852 97.3667 22.2852C95.806 22.2852 94.5908 22.0112 93.7211 21.4631C92.8514 20.9032 92.4165 20.0216 92.4165 18.8183C92.4165 17.5078 93.0063 16.5726 94.1857 16.0126C95.3652 15.4408 96.8544 15.1548 98.6533 15.1548C100.286 15.1548 102.001 15.3693 103.8 15.7982C103.752 14.9523 103.371 14.3745 102.656 14.0647C101.942 13.755 101.048 13.6001 99.9758 13.6001C99.0703 13.6001 98.141 13.6716 97.188 13.8145C96.2468 13.9456 95.1686 14.166 93.9534 14.4758L93.2922 12.0454C95.8417 11.402 98.2602 11.0804 100.548 11.0804ZM98.5282 19.7654C99.1835 19.7654 100.011 19.6761 101.012 19.4974C102.025 19.3068 102.954 19.0983 103.8 18.8719V17.9605C102.156 17.6031 100.583 17.4244 99.0822 17.4244C98.0457 17.4244 97.2773 17.5197 96.7769 17.7103C96.2885 17.9009 96.0442 18.2107 96.0442 18.6396C96.0442 19.0685 96.2408 19.3663 96.634 19.5331C97.0271 19.688 97.6585 19.7654 98.5282 19.7654ZM118.179 14.0826H113.461V17.4065C113.461 18.169 113.598 18.7111 113.872 19.0327C114.158 19.3544 114.682 19.5152 115.445 19.5152C115.885 19.5152 116.296 19.4974 116.678 19.4616C117.059 19.414 117.559 19.3306 118.179 19.2114V22.0171C116.844 22.2792 115.665 22.4103 114.64 22.4103C113.032 22.4103 111.858 22.1005 111.12 21.481C110.381 20.8496 110.012 19.819 110.012 18.3894V14.0826H107.528V11.4378H110.012V9.31117L113.461 8.34616V11.4378H118.179V14.0826ZM126.583 22.4103C124.177 22.4103 122.318 21.9218 121.008 20.9449C119.709 19.956 119.06 18.5562 119.06 16.7453C119.06 14.9344 119.709 13.5405 121.008 12.5636C122.318 11.5748 124.177 11.0804 126.583 11.0804C129.002 11.0804 130.86 11.5748 132.159 12.5636C133.47 13.5405 134.125 14.9344 134.125 16.7453C134.125 18.5562 133.47 19.956 132.159 20.9449C130.86 21.9218 129.002 22.4103 126.583 22.4103ZM126.583 19.6403C127.906 19.6403 128.889 19.408 129.532 18.9434C130.187 18.4668 130.515 17.7341 130.515 16.7453C130.515 15.7565 130.187 15.0297 129.532 14.5651C128.877 14.0886 127.894 13.8503 126.583 13.8503C125.273 13.8503 124.29 14.0886 123.635 14.5651C122.991 15.0297 122.67 15.7565 122.67 16.7453C122.67 17.7341 122.991 18.4668 123.635 18.9434C124.29 19.408 125.273 19.6403 126.583 19.6403ZM143.302 11.0804C143.814 11.0804 144.273 11.1221 144.678 11.2054C145.095 11.2769 145.53 11.3961 145.982 11.5629V14.583C145.434 14.4043 144.952 14.2792 144.535 14.2077C144.118 14.1362 143.677 14.1005 143.212 14.1005C142.438 14.1005 141.681 14.2553 140.943 14.5651C140.204 14.8749 139.436 15.4527 138.638 16.2985V22.0529H135.189V11.4378H138.638V13.6001C139.281 12.6827 139.978 12.0334 140.728 11.6522C141.479 11.271 142.337 11.0804 143.302 11.0804Z" fill="white"/>
<defs>
<radialGradient id="paint0_radial_182_4691" cx="0" cy="0" r="1" gradientUnits="userSpaceOnUse" gradientTransform="translate(13.184 6.21008) rotate(51.0185) scale(17.5528 92.6636)">
<stop stop-color="#FFE766"/>
<stop offset="0.0864254" stop-color="#FFCB5A"/>
<stop offset="0.148193" stop-color="#FFB059"/>
<stop offset="0.2102" stop-color="#FF9560"/>
<stop offset="0.272636" stop-color="#FF7D6A"/>
<stop offset="0.335886" stop-color="#FF6777"/>
<stop offset="0.389464" stop-color="#FF5383"/>
<stop offset="0.465787" stop-color="#FE448F"/>
<stop offset="0.525974" stop-color="#F2399A"/>
<stop offset="0.576918" stop-color="#E433A4"/>
<stop offset="0.63088" stop-color="#D731AC"/>
<stop offset="0.6875" stop-color="#CA31B2"/>
<stop offset="0.75" stop-color="#BF32B7"/>
<stop offset="0.8125" stop-color="#B534BB"/>
<stop offset="0.875" stop-color="#AE35BD"/>
<stop offset="0.9375" stop-color="#AA36BF"/>
<stop offset="1" stop-color="#A836BF"/>
</radialGradient>
</defs>
</svg>
